<svg aria-hidden="true" style="position: absolute; width: 0; height: 0; overflow: hidden;" version="1.1" xmlns="http://www.w3.org/2000/svg" xmlns:xlink="http://www.w3.org/1999/xlink">
<defs>
<symbol id="icon-group1" viewBox="0 0 67 32">
<path d="M33.724 15.224c-0.315-0.419-0.466-0.915-0.43-1.414v-2.050c0-0.628 0.142-1.106 0.428-1.433s0.775-0.489 1.469-0.488c0.652 0 1.115 0.139 1.389 0.417 0.299 0.355 0.444 0.789 0.411 1.226v0.482h-1.167v-0.488c0.001-0.019 0.001-0.041 0.001-0.064 0-0.146-0.013-0.289-0.037-0.428l0.002 0.015c-0.017-0.108-0.076-0.208-0.167-0.284-0.12-0.081-0.271-0.121-0.423-0.111-0.16-0.010-0.318 0.031-0.444 0.117-0.102 0.084-0.169 0.193-0.193 0.313-0.029 0.14-0.046 0.301-0.046 0.466 0 0.014 0 0.029 0 0.043l-0-0.002v2.488c-0.018 0.24 0.033 0.48 0.15 0.699 0.058 0.074 0.139 0.132 0.233 0.169 0.069 0.027 0.148 0.043 0.231 0.043 0.025 0 0.049-0.001 0.073-0.004l-0.003 0c0.149 0.011 0.298-0.030 0.413-0.113 0.095-0.082 0.156-0.188 0.174-0.302 0.023-0.135 0.037-0.289 0.037-0.448 0-0.018-0-0.036-0.001-0.054l0 0.003v-0.505h1.167v0.461c0.033 0.456-0.109 0.909-0.403 1.289-0.268 0.305-0.725 0.457-1.396 0.457s-1.179-0.163-1.466-0.501zM38.583 15.245c-0.295-0.319-0.442-0.784-0.442-1.4v-2.157c0-0.609 0.147-1.070 0.442-1.383s0.788-0.469 1.478-0.467c0.686 0 1.177 0.156 1.471 0.467 0.295 0.313 0.444 0.774 0.444 1.383v2.157c0 0.609-0.15 1.076-0.449 1.397s-0.788 0.482-1.466 0.482c-0.679 0-1.181-0.163-1.478-0.48zM40.605 14.727c0.106-0.2 0.154-0.419 0.14-0.638v-2.641c0.014-0.215-0.034-0.43-0.138-0.626-0.059-0.075-0.142-0.135-0.238-0.172-0.068-0.026-0.146-0.042-0.228-0.042-0.028 0-0.056 0.002-0.083 0.005l0.003-0c-0.024-0.003-0.051-0.005-0.079-0.005-0.083 0-0.162 0.015-0.234 0.043l0.004-0.002c-0.097 0.037-0.18 0.096-0.24 0.172-0.106 0.195-0.154 0.41-0.14 0.626v2.653c-0.015 0.219 0.033 0.439 0.14 0.638 0.068 0.067 0.152 0.121 0.246 0.158s0.196 0.056 0.3 0.056c0.103 0 0.206-0.019 0.3-0.056 0.096-0.038 0.178-0.091 0.246-0.158l-0 0v-0.012zM43.38 9.901h1.256l0.945 3.979 0.966-3.979h1.222l0.123 5.743h-0.904l-0.097-3.992-0.932 3.992h-0.725l-0.966-4.006-0.089 4.006h-0.913l0.114-5.743zM49.301 9.901h1.957c1.127 0 1.691 0.544 1.691 1.631 0 1.041-0.593 1.561-1.78 1.56h-0.667v2.553h-1.208l0.007-5.743zM50.973 12.356c0.119 0.013 0.24 0.004 0.355-0.028 0.118-0.032 0.222-0.085 0.311-0.155l-0.002 0.001c0.139-0.194 0.2-0.422 0.174-0.649 0.001-0.019 0.001-0.042 0.001-0.064 0-0.163-0.022-0.32-0.062-0.47l0.003 0.013c-0.019-0.061-0.050-0.114-0.089-0.158l0 0c-0.042-0.047-0.093-0.086-0.15-0.114l-0.003-0.001c-0.14-0.059-0.303-0.093-0.474-0.093-0.023 0-0.045 0.001-0.068 0.002l0.003-0h-0.469v1.716h0.469zM54.691 9.901h1.297l1.331 5.743h-1.126l-0.263-1.324h-1.157l-0.271 1.324h-1.143l1.331-5.743zM55.8 13.655l-0.452-2.411-0.452 2.411h0.903zM58.395 9.901h0.846l1.619 3.276v-3.276h1.003v5.743h-0.804l-1.628-3.42v3.42h-1.036l0.002-5.743zM64.209 13.455l-1.346-3.546h1.133l0.821 2.277 0.771-2.277h1.109l-1.329 3.546v2.19h-1.16v-2.19zM35.589 18.156v0.3h-0.986v2.334h-0.413v-2.334h-0.99v-0.3h2.389zM38.679 20.79h-0.319c-0.003 0-0.005 0-0.008 0-0.030 0-0.058-0.009-0.081-0.026l0 0c-0.023-0.015-0.041-0.035-0.053-0.060l-0-0.001-0.285-0.626h-1.367l-0.285 0.626c-0.009 0.028-0.024 0.052-0.044 0.071l-0 0c-0.023 0.016-0.052 0.025-0.083 0.025-0.002 0-0.005-0-0.007-0h-0.319l1.208-2.634h0.42l1.222 2.624zM36.679 19.812h1.14l-0.483-1.072c-0.031-0.067-0.061-0.15-0.086-0.235l-0.003-0.014c-0.017 0.050-0.031 0.098-0.046 0.14l-0.044 0.11-0.478 1.070zM40.762 20.532c0.076 0.003 0.151 0.003 0.227 0 0.073-0.007 0.139-0.018 0.203-0.033l-0.009 0.002c0.069-0.015 0.128-0.031 0.184-0.051l-0.011 0.003c0.053-0.019 0.106-0.042 0.162-0.065v-0.592h-0.483c-0.002 0-0.003 0-0.005 0-0.011 0-0.021-0.002-0.031-0.005l0.001 0c-0.012-0.004-0.022-0.009-0.030-0.016l0 0c-0.008-0.006-0.014-0.013-0.018-0.021l-0-0c-0.004-0.007-0.006-0.015-0.006-0.024 0-0.001 0-0.002 0-0.002v0-0.202h0.937v1.010c-0.147 0.092-0.316 0.166-0.497 0.212l-0.012 0.003c-0.085 0.023-0.187 0.042-0.292 0.053l-0.010 0.001c-0.104 0.011-0.225 0.017-0.348 0.017-0.002 0-0.003 0-0.005 0h0c-0.005 0-0.010 0-0.016 0-0.212 0-0.416-0.036-0.606-0.102l0.013 0.004c-0.181-0.063-0.345-0.156-0.483-0.275-0.134-0.12-0.24-0.262-0.312-0.417s-0.111-0.338-0.111-0.53c0-0.006 0-0.012 0-0.018v0.001c-0-0.005-0-0.011-0-0.017 0-0.193 0.040-0.377 0.112-0.543l-0.003 0.009c0.069-0.156 0.176-0.298 0.312-0.417 0.138-0.119 0.302-0.212 0.483-0.273 0.186-0.062 0.401-0.098 0.624-0.098 0.008 0 0.017 0 0.025 0h-0.001c0.001 0 0.001 0 0.002 0 0.118 0 0.234 0.008 0.347 0.024l-0.013-0.002c0.109 0.015 0.206 0.039 0.299 0.070l-0.012-0.003c0.084 0.027 0.165 0.062 0.242 0.104 0.074 0.041 0.144 0.087 0.21 0.138l-0.116 0.163c-0.010 0.015-0.023 0.028-0.039 0.036l-0.001 0c-0.016 0.009-0.035 0.014-0.055 0.014h-0c-0.028-0.001-0.053-0.008-0.076-0.021l0.001 0c-0.049-0.023-0.088-0.044-0.125-0.066l0.007 0.004c-0.045-0.025-0.099-0.049-0.154-0.069l-0.008-0.002c-0.062-0.022-0.136-0.043-0.213-0.057l-0.009-0.001c-0.088-0.015-0.188-0.023-0.291-0.023-0.005 0-0.011 0-0.016 0h0.001c-0.005-0-0.010-0-0.015-0-0.161 0-0.316 0.027-0.461 0.076l0.010-0.003c-0.134 0.047-0.256 0.118-0.355 0.209-0.1 0.095-0.177 0.206-0.225 0.328-0.051 0.13-0.081 0.281-0.081 0.439s0.030 0.309 0.084 0.447l-0.003-0.008c0.053 0.124 0.135 0.237 0.242 0.332 0.099 0.090 0.219 0.162 0.353 0.209 0.154 0.046 0.316 0.063 0.478 0.052zM44.612 20.49h1.319v0.3h-1.722v-2.634h0.413l-0.010 2.334zM47.304 20.79h-0.413v-2.634h0.413v2.634zM48.84 18.168c0.025 0.012 0.045 0.028 0.063 0.048l0 0 1.766 1.986c-0.001-0.014-0.002-0.030-0.002-0.047s0.001-0.033 0.002-0.049l-0 0.002v-1.963h0.36v2.645h-0.208c-0.004 0-0.009 0-0.014 0-0.027 0-0.053-0.006-0.077-0.016l0.001 0c-0.025-0.013-0.047-0.030-0.065-0.050l-0-0-1.764-1.984v2.048h-0.345v-2.634h0.215c0.024 0 0.048 0.005 0.069 0.013l-0.001-0zM54.070 18.156v0.29h-1.464v0.87h1.186v0.279h-1.186v0.899h1.464v0.29h-1.889v-2.628h1.889zM10.782 1.888l18.343 4.497v15.757l-18.343-4.494v-15.759zM9.605 0.545v17.867l20.694 5.074v-17.865l-20.694-5.076z"></path>
<path d="M20.696 31.781l-20.696-5.079v-17.866l20.696 5.076v17.868z"></path>
<path d="M9.948 1.686l18.104 4.44-7.699 6.649-18.106-4.442 7.702-6.647zM9.605 0.545l-9.605 8.292 20.696 5.076 9.603-8.292-20.694-5.076zM21.861 30.776l8.438-7.287-8.438-2.071v9.358z"></path>
</symbol>
<symbol id="icon-group2" viewBox="0 0 43 32">
<path d="M3.239 26.373c0.166 0.188 0.254 0.424 0.25 0.665 0.001 0.015 0.001 0.033 0.001 0.051 0 0.149-0.033 0.289-0.093 0.415l0.003-0.006c-0.067 0.145-0.169 0.275-0.298 0.38-0.322 0.223-0.722 0.332-1.125 0.307h-1.977v-4.215h1.936c0.382-0.023 0.761 0.076 1.073 0.28 0.125 0.096 0.224 0.217 0.289 0.354s0.095 0.286 0.086 0.435c0.011 0.233-0.068 0.461-0.225 0.645-0.15 0.168-0.358 0.284-0.589 0.329 0.262 0.044 0.499 0.172 0.668 0.36zM0.92 25.737h0.828c0.188 0.013 0.375-0.037 0.526-0.14 0.060-0.050 0.108-0.112 0.14-0.184l0.001-0.003c0.024-0.054 0.038-0.117 0.038-0.184 0-0.014-0.001-0.029-0.002-0.043l0 0.002c0.001-0.011 0.001-0.023 0.001-0.036 0-0.068-0.014-0.133-0.040-0.191l0.001 0.003c-0.033-0.074-0.079-0.137-0.138-0.187l-0.001-0.001c-0.156-0.106-0.349-0.156-0.542-0.142h-0.814v1.106zM2.355 27.353c0.065-0.051 0.116-0.116 0.151-0.19l0.001-0.003c0.028-0.059 0.044-0.129 0.044-0.202 0-0.012-0-0.023-0.001-0.034l0 0.002c0.001-0.009 0.001-0.019 0.001-0.030 0-0.075-0.017-0.147-0.047-0.211l0.001 0.003c-0.037-0.078-0.090-0.143-0.154-0.194l-0.001-0.001c-0.162-0.11-0.361-0.164-0.562-0.152h-0.868v1.159h0.879c0.198 0.011 0.394-0.041 0.556-0.146zM7.197 28.185l-1.077-1.647h-0.405v1.647h-0.927v-4.215h1.754c0.442-0.028 0.879 0.1 1.221 0.358 0.245 0.229 0.393 0.53 0.417 0.85s-0.078 0.637-0.287 0.894c-0.216 0.227-0.512 0.378-0.837 0.428l1.147 1.684h-1.008zM5.715 25.963h0.758c0.526 0 0.789-0.213 0.789-0.638 0.001-0.011 0.001-0.023 0.001-0.035 0-0.079-0.016-0.155-0.045-0.224l0.001 0.004c-0.036-0.086-0.087-0.158-0.151-0.218l-0-0c-0.166-0.127-0.381-0.188-0.596-0.171h-0.767l0.009 1.283zM12.262 27.337h-1.847l-0.326 0.848h-0.972l1.696-4.168h1.050l1.689 4.168h-0.972l-0.319-0.848zM12.015 26.698l-0.675-1.779-0.675 1.779h1.349zM18.602 28.185h-0.92l-2.062-2.867v2.867h-0.918v-4.215h0.918l2.062 2.883v-2.883h0.92v4.215zM23.852 27.176c-0.19 0.318-0.48 0.577-0.832 0.743-0.4 0.185-0.845 0.276-1.293 0.266h-1.637v-4.215h1.637c0.448-0.011 0.891 0.078 1.293 0.259 0.352 0.163 0.642 0.419 0.832 0.735 0.189 0.343 0.288 0.722 0.288 1.106s-0.099 0.763-0.288 1.106zM22.799 27.075c0.263-0.28 0.407-0.637 0.407-1.006s-0.144-0.726-0.407-1.006c-0.317-0.254-0.731-0.382-1.152-0.358h-0.639v2.729h0.639c0.42 0.024 0.834-0.105 1.152-0.358zM12.838 0.522s11.873 4.104 11.621 10.043v10.045s-11.864-4.106-11.617-10.045l-0.005-10.043zM35.037 18.259c2.242-1.413 4.836-2.288 7.544-2.545v-3.145c-3.12 1.101-5.766 3.097-7.544 5.69z"></path>
<path d="M33.69 19.206c1.835-3.384 5.017-5.995 8.891-7.296v-9.061s-16.909 5.846-16.551 14.304v14.302s0.753-0.262 1.939-0.752c0-0.457 0-0.918 0.054-1.382 0.35-3.926 2.389-7.565 5.668-10.115z"></path>
<path d="M32.081 24.52c0.099-1.082 0.309-2.076 0.619-3.025l-0.027 0.097c-2.042 2.203-3.278 4.936-3.536 7.815-0.025 0.272-0.038 0.544-0.045 0.824 0.96-0.422 2.078-0.949 3.252-1.569-0.202-0.878-0.318-1.886-0.318-2.922 0-0.429 0.020-0.854 0.059-1.273l-0.004 0.054zM32.754 24.571c-0.033 0.348-0.052 0.752-0.052 1.16 0 0.917 0.095 1.811 0.276 2.674l-0.015-0.084c4.62-2.531 9.811-6.442 9.611-11.168v-0.412c-3.301 0.338-6.389 1.659-8.79 3.76-0.562 1.302-0.909 2.674-1.030 4.069z"></path>
</symbol>
<symbol id="icon-group3" viewBox="0 0 65 32">
<path d="M10.016 9.983h-0.002c-1.827 0-3.308 1.316-3.308 2.94v0.002c0 1.624 1.481 2.94 3.308 2.94h0.002c1.827 0 3.308-1.316 3.308-2.94v-0.002c0-1.624-1.481-2.94-3.308-2.94zM34.434 9.043c-0.005-2.255-1.015-4.417-2.81-6.012s-4.226-2.493-6.764-2.498c-2.538 0.004-4.972 0.902-6.767 2.497s-2.806 3.757-2.811 6.013v12.436s19.149-1.895 19.151-12.434v-0.002zM0 25.562c0.005 1.569 0.708 3.073 1.956 4.183s2.94 1.735 4.706 1.74c1.765-0.005 3.457-0.63 4.705-1.739s1.952-2.613 1.957-4.182v-8.654s-13.325 1.32-13.325 8.652zM6.662 27.112c-0.345 0-0.682-0.091-0.969-0.261s-0.51-0.413-0.643-0.696c-0.132-0.283-0.167-0.595-0.099-0.896s0.233-0.577 0.477-0.794c0.244-0.217 0.555-0.364 0.893-0.424s0.689-0.029 1.008 0.088c0.319 0.117 0.591 0.316 0.783 0.571s0.294 0.555 0.294 0.861c0 0.001 0 0.002 0 0.003 0 0.215-0.048 0.418-0.135 0.6l0.004-0.009c-0.087 0.189-0.216 0.36-0.378 0.505s-0.355 0.259-0.567 0.338c-0.198 0.075-0.428 0.119-0.667 0.119-0.001 0-0.001 0-0.002 0h0v-0.006zM20.128 26.258h-1.286v1.328h-0.67v-3.25h2.116v0.542h-1.446v0.839h1.286v0.54zM23.346 26.035c0 0.32-0.057 0.6-0.17 0.842s-0.275 0.427-0.487 0.558c-0.21 0.131-0.451 0.196-0.723 0.196-0.269 0-0.51-0.065-0.721-0.194s-0.375-0.314-0.491-0.554c-0.116-0.241-0.175-0.518-0.176-0.83v-0.161c0-0.32 0.057-0.601 0.172-0.844 0.116-0.244 0.279-0.431 0.489-0.56 0.211-0.131 0.452-0.196 0.723-0.196s0.511 0.065 0.721 0.196c0.211 0.129 0.374 0.316 0.489 0.56 0.116 0.242 0.174 0.523 0.174 0.841v0.145zM22.668 25.888c0-0.341-0.061-0.6-0.183-0.777s-0.296-0.266-0.522-0.266c-0.225 0-0.398 0.088-0.52 0.263-0.122 0.174-0.184 0.43-0.185 0.768v0.158c0 0.332 0.061 0.589 0.183 0.772s0.298 0.275 0.527 0.275c0.225 0 0.397-0.088 0.518-0.263 0.121-0.177 0.182-0.434 0.183-0.772v-0.158zM25.518 26.734c0-0.126-0.045-0.223-0.134-0.29-0.089-0.068-0.25-0.14-0.482-0.214-0.232-0.076-0.416-0.15-0.551-0.223-0.369-0.199-0.554-0.468-0.554-0.806 0-0.176 0.049-0.332 0.147-0.469 0.1-0.138 0.242-0.246 0.426-0.324 0.186-0.077 0.394-0.116 0.625-0.116 0.232 0 0.439 0.042 0.621 0.127 0.181 0.083 0.322 0.202 0.422 0.355 0.101 0.153 0.152 0.327 0.152 0.522h-0.67c0-0.149-0.047-0.264-0.141-0.346-0.094-0.083-0.225-0.125-0.395-0.125-0.164 0-0.291 0.035-0.382 0.105-0.091 0.068-0.136 0.159-0.136 0.272 0 0.106 0.053 0.194 0.158 0.266 0.107 0.071 0.264 0.138 0.471 0.201 0.381 0.115 0.659 0.257 0.833 0.426s0.261 0.381 0.261 0.634c0 0.281-0.106 0.502-0.319 0.663-0.213 0.159-0.499 0.239-0.859 0.239-0.25 0-0.478-0.045-0.683-0.136-0.205-0.092-0.362-0.218-0.471-0.377-0.107-0.159-0.161-0.344-0.161-0.554h0.672c0 0.359 0.214 0.538 0.643 0.538 0.159 0 0.284-0.032 0.373-0.096 0.089-0.065 0.134-0.156 0.134-0.272zM29.092 24.879h-0.996v2.708h-0.67v-2.708h-0.982v-0.542h2.647v0.542zM31.431 26.178h-1.286v0.871h1.509v0.538h-2.179v-3.25h2.174v0.542h-1.504v0.775h1.286v0.525zM33.251 26.396h-0.533v1.19h-0.67v-3.25h1.208c0.384 0 0.68 0.086 0.888 0.257s0.312 0.413 0.312 0.725c0 0.222-0.048 0.407-0.145 0.556-0.095 0.147-0.24 0.265-0.435 0.353l0.703 1.328v0.031h-0.719l-0.609-1.19zM32.717 25.854h0.54c0.168 0 0.298-0.042 0.391-0.127 0.092-0.086 0.138-0.205 0.138-0.355 0-0.153-0.044-0.274-0.132-0.362-0.086-0.088-0.219-0.132-0.4-0.132h-0.538v0.975zM36.775 26.441v1.145h-0.67v-3.25h1.268c0.244 0 0.458 0.045 0.643 0.134 0.186 0.089 0.329 0.216 0.429 0.382 0.1 0.164 0.15 0.35 0.15 0.56 0 0.318-0.109 0.57-0.328 0.754-0.217 0.183-0.519 0.275-0.904 0.275h-0.587zM36.775 25.899h0.598c0.177 0 0.312-0.042 0.404-0.125 0.094-0.083 0.141-0.202 0.141-0.357 0-0.159-0.047-0.288-0.141-0.386s-0.223-0.149-0.388-0.152h-0.614v1.020zM41.012 26.178h-1.286v0.871h1.509v0.538h-2.179v-3.25h2.174v0.542h-1.504v0.775h1.286v0.525zM44.119 24.879h-0.995v2.708h-0.67v-2.708h-0.982v-0.542h2.647v0.542zM46.458 26.178h-1.286v0.871h1.509v0.538h-2.178v-3.25h2.174v0.542h-1.504v0.775h1.286v0.525zM48.277 26.396h-0.533v1.19h-0.67v-3.25h1.208c0.384 0 0.68 0.086 0.888 0.257s0.313 0.413 0.313 0.725c0 0.222-0.048 0.407-0.145 0.556-0.095 0.147-0.24 0.265-0.435 0.353l0.703 1.328v0.031h-0.719l-0.609-1.19zM47.744 25.854h0.54c0.168 0 0.298-0.042 0.391-0.127 0.092-0.086 0.138-0.205 0.138-0.355 0-0.153-0.044-0.274-0.132-0.362-0.086-0.088-0.219-0.132-0.4-0.132h-0.538v0.975zM51.679 26.734c0-0.126-0.045-0.223-0.134-0.29-0.089-0.068-0.25-0.14-0.482-0.214-0.232-0.076-0.416-0.15-0.551-0.223-0.369-0.199-0.554-0.468-0.554-0.806 0-0.176 0.049-0.332 0.147-0.469 0.1-0.138 0.242-0.246 0.426-0.324 0.186-0.077 0.394-0.116 0.625-0.116 0.232 0 0.439 0.042 0.621 0.127 0.182 0.083 0.322 0.202 0.422 0.355 0.101 0.153 0.152 0.327 0.152 0.522h-0.67c0-0.149-0.047-0.264-0.141-0.346-0.094-0.083-0.225-0.125-0.395-0.125-0.164 0-0.291 0.035-0.382 0.105-0.091 0.068-0.136 0.159-0.136 0.272 0 0.106 0.053 0.194 0.158 0.266 0.107 0.071 0.264 0.138 0.471 0.201 0.381 0.115 0.658 0.257 0.833 0.426s0.261 0.381 0.261 0.634c0 0.281-0.106 0.502-0.319 0.663-0.213 0.159-0.499 0.239-0.859 0.239-0.25 0-0.478-0.045-0.683-0.136-0.205-0.092-0.362-0.218-0.471-0.377-0.107-0.159-0.161-0.344-0.161-0.554h0.672c0 0.359 0.214 0.538 0.643 0.538 0.159 0 0.283-0.032 0.373-0.096 0.089-0.065 0.134-0.156 0.134-0.272z"></path>
</symbol>
<symbol id="icon-group4" viewBox="0 0 34 32">
<path d="M5.643 31.315c0.013 0 0.025 0.003 0.036 0.007l-0.001-0c0.011 0.004 0.021 0.011 0.029 0.018l-0-0 0.166 0.159c-0.129 0.129-0.288 0.231-0.467 0.302-0.184 0.069-0.398 0.109-0.62 0.109-0.015 0-0.030-0-0.045-0.001l0.002 0c-0.010 0-0.022 0-0.034 0-0.211 0-0.414-0.037-0.602-0.105l0.012 0.004c-0.178-0.065-0.338-0.162-0.47-0.285-0.134-0.128-0.237-0.278-0.303-0.44s-0.106-0.35-0.106-0.548c0-0.006 0-0.012 0-0.018v0.001c-0-0.006-0-0.012-0-0.019 0-0.198 0.042-0.387 0.118-0.557l-0.003 0.009c0.073-0.164 0.182-0.314 0.322-0.44 0.142-0.124 0.312-0.222 0.498-0.287 0.185-0.064 0.399-0.101 0.621-0.101 0.007 0 0.015 0 0.022 0h-0.001c0.011-0 0.025-0 0.038-0 0.2 0 0.392 0.034 0.57 0.096l-0.012-0.004c0.165 0.062 0.316 0.148 0.447 0.255l-0.139 0.17c-0.010 0.012-0.022 0.022-0.035 0.030l-0.001 0c-0.014 0.008-0.030 0.013-0.048 0.013-0.003 0-0.006-0-0.008-0l0 0c-0.022-0.001-0.043-0.008-0.061-0.018l0.001 0-0.075-0.045-0.104-0.058c-0.037-0.019-0.083-0.037-0.131-0.053l-0.008-0.002c-0.052-0.017-0.115-0.033-0.18-0.044l-0.009-0.001c-0.069-0.012-0.148-0.018-0.228-0.018-0.007 0-0.013 0-0.020 0h0.001c-0.005-0-0.011-0-0.017-0-0.159 0-0.312 0.028-0.454 0.079l0.009-0.003c-0.136 0.048-0.26 0.121-0.361 0.213-0.104 0.098-0.183 0.214-0.235 0.339-0.054 0.128-0.085 0.277-0.085 0.433 0 0.005 0 0.010 0 0.015v-0.001c-0 0.005-0 0.011-0 0.017 0 0.158 0.031 0.308 0.088 0.445l-0.003-0.008c0.051 0.125 0.129 0.239 0.231 0.338 0.095 0.092 0.213 0.163 0.345 0.209 0.136 0.049 0.281 0.073 0.428 0.072 0.007 0 0.016 0 0.025 0 0.081 0 0.16-0.005 0.238-0.016l-0.009 0.001c0.143-0.015 0.273-0.058 0.389-0.124l-0.005 0.003c0.062-0.036 0.116-0.073 0.166-0.114l-0.002 0.002c0.021-0.017 0.049-0.028 0.079-0.029h0zM10.441 30.517c0 0.005 0 0.011 0 0.017 0 0.197-0.041 0.384-0.116 0.554l0.003-0.009c-0.068 0.163-0.174 0.311-0.313 0.436s-0.306 0.222-0.491 0.286c-0.189 0.064-0.406 0.101-0.631 0.101s-0.443-0.037-0.646-0.105l0.014 0.004c-0.184-0.065-0.35-0.163-0.488-0.287-0.138-0.127-0.246-0.276-0.316-0.44-0.15-0.364-0.15-0.761 0-1.125 0.071-0.164 0.178-0.314 0.316-0.442 0.139-0.12 0.305-0.214 0.488-0.276 0.188-0.065 0.406-0.103 0.632-0.103s0.443 0.038 0.646 0.107l-0.014-0.004c0.185 0.065 0.351 0.163 0.49 0.287 0.137 0.125 0.243 0.273 0.314 0.435 0.077 0.181 0.115 0.372 0.112 0.565zM10.005 30.517c0-0.007 0-0.015 0-0.024 0-0.154-0.029-0.301-0.082-0.435l0.003 0.008c-0.047-0.125-0.122-0.239-0.222-0.338-0.097-0.093-0.217-0.166-0.351-0.213-0.137-0.047-0.295-0.074-0.459-0.074s-0.322 0.027-0.469 0.077l0.010-0.003c-0.134 0.047-0.254 0.12-0.351 0.213-0.101 0.097-0.178 0.212-0.224 0.338-0.050 0.134-0.079 0.289-0.079 0.451s0.029 0.317 0.082 0.46l-0.003-0.009c0.047 0.125 0.123 0.24 0.224 0.338 0.098 0.092 0.217 0.164 0.351 0.211 0.137 0.046 0.295 0.072 0.459 0.072s0.322-0.026 0.47-0.075l-0.011 0.003c0.134-0.047 0.254-0.119 0.351-0.211 0.1-0.098 0.175-0.213 0.222-0.338 0.050-0.126 0.079-0.273 0.079-0.426 0-0.009-0-0.018-0-0.027l0 0.001zM13.715 30.99l0.044 0.101c0.017-0.036 0.031-0.069 0.048-0.101 0.018-0.039 0.037-0.072 0.056-0.103l-0.002 0.004 1.062-1.677c0.021-0.029 0.039-0.047 0.060-0.052s0.047-0.009 0.072-0.009c0.005 0 0.010 0 0.016 0l-0.001-0h0.314v2.727h-0.372v-2.090c-0.001-0.014-0.002-0.030-0.002-0.047s0.001-0.033 0.002-0.049l-0 0.002-1.068 1.7c-0.015 0.026-0.036 0.048-0.062 0.062l-0.001 0c-0.026 0.014-0.057 0.023-0.089 0.023-0.001 0-0.001 0-0.002 0h-0.060c-0.001 0-0.002 0-0.003 0-0.032 0-0.063-0.008-0.089-0.023l0.001 0c-0.027-0.014-0.048-0.036-0.062-0.062l-0-0.001-1.099-1.711v2.189h-0.359v-2.722h0.314c0.004-0 0.010-0 0.015-0 0.026 0 0.051 0.003 0.074 0.010l-0.002-0c0.025 0.011 0.045 0.029 0.058 0.052l0 0.001 1.084 1.678c0.020 0.028 0.038 0.060 0.053 0.094l0.001 0.004zM17.71 30.855v1.021h-0.415v-2.723h0.926c0.010-0 0.022-0 0.034-0 0.172 0 0.338 0.022 0.497 0.063l-0.014-0.003c0.134 0.033 0.259 0.091 0.366 0.17 0.092 0.074 0.163 0.165 0.208 0.267 0.049 0.111 0.073 0.229 0.071 0.348 0 0.003 0 0.007 0 0.010 0 0.123-0.028 0.239-0.079 0.343l0.002-0.005c-0.050 0.104-0.127 0.198-0.224 0.273-0.104 0.080-0.227 0.142-0.36 0.179l-0.007 0.002c-0.14 0.040-0.301 0.063-0.467 0.063-0.012 0-0.023-0-0.035-0l0.002 0-0.503-0.007zM17.71 30.562h0.503c0.004 0 0.009 0 0.014 0 0.11 0 0.215-0.015 0.316-0.044l-0.008 0.002c0.089-0.026 0.167-0.066 0.234-0.119l-0.002 0.001c0.060-0.048 0.108-0.108 0.14-0.177l0.001-0.003c0.032-0.065 0.050-0.142 0.050-0.223 0-0.002 0-0.004-0-0.007v0c0.001-0.009 0.001-0.018 0.001-0.028 0-0.070-0.016-0.137-0.044-0.196l0.001 0.003c-0.035-0.074-0.084-0.136-0.144-0.185l-0.001-0.001c-0.159-0.108-0.358-0.16-0.559-0.146h-0.503v1.122zM23.294 31.88h-0.328c-0.002 0-0.004 0-0.006 0-0.032 0-0.061-0.009-0.086-0.026l0.001 0c-0.023-0.016-0.041-0.038-0.054-0.062l-0-0.001-0.282-0.659h-1.419l-0.293 0.659c-0.012 0.025-0.030 0.046-0.051 0.061l-0 0c-0.025 0.017-0.055 0.027-0.088 0.027-0.002 0-0.004-0-0.006-0h-0.328l1.246-2.727h0.432l1.263 2.727zM21.237 30.867h1.172l-0.494-1.11c-0.033-0.071-0.065-0.156-0.090-0.244l-0.003-0.013-0.048 0.143c-0.016 0.048-0.032 0.086-0.049 0.123l0.003-0.008-0.49 1.108zM25.089 29.165c0.025 0.012 0.046 0.028 0.062 0.048l0 0 1.818 2.056v-2.117h0.372v2.727h-0.208c-0.002 0-0.004 0-0.006 0-0.029 0-0.056-0.006-0.081-0.017l0.001 0c-0.026-0.013-0.048-0.030-0.066-0.050l-0-0-1.816-2.054c0.001 0.014 0.002 0.030 0.002 0.047s-0.001 0.033-0.002 0.049l0-0.002v2.027h-0.372v-2.727h0.22c0.002-0 0.003-0 0.005-0 0.025 0 0.049 0.005 0.071 0.013l-0.001-0zM30.402 30.795v1.083h-0.415v-1.083l-1.149-1.642h0.372c0.003-0 0.006-0 0.009-0 0.030 0 0.058 0.009 0.081 0.024l-0.001-0c0.022 0.017 0.041 0.037 0.055 0.060l0.001 0.001 0.719 1.059c0.029 0.045 0.054 0.087 0.075 0.126s0.037 0.078 0.052 0.116l0.054-0.117c0.023-0.048 0.046-0.089 0.073-0.128l-0.002 0.003 0.708-1.067c0.016-0.022 0.033-0.041 0.053-0.057l0.001-0c0.023-0.017 0.051-0.027 0.083-0.027 0.002 0 0.005 0 0.007 0h0.376l-1.151 1.65zM13.51 24.576c0.181 0.020 0.364 0.036 0.548 0.051 2.803-1.089 5.174-2.873 6.817-5.126s2.485-4.878 2.421-7.546l-3.089-2.684c0.628 2.84 0.334 5.776-0.849 8.479s-3.208 5.067-5.849 6.827z"></path>
<path d="M12.407 24.451l0.083 0.014c2.822-1.754 4.974-4.203 6.176-7.030s1.402-5.904 0.571-8.83l-4.4-3.823c1.78 3.142 2.496 6.659 2.066 10.141s-1.989 6.786-4.496 9.528zM27.328 15.106c-0.747 2.931-2.563 5.574-5.177 7.537-0.763 0.576-1.587 1.090-2.46 1.534 2.128-0.544 4.085-1.504 5.718-2.809s2.9-2.917 3.703-4.714l-1.784-1.549z"></path>
<path d="M26.628 14.674l-2.541-2.207c-0.049 2.517-0.872 4.976-2.385 7.123s-3.66 3.902-6.217 5.084h0.012c0.601-0 1.194-0.032 1.778-0.095l-0.073 0.006c2.39-0.848 4.502-2.196 6.147-3.926s2.771-3.785 3.278-5.985zM12.774 3.17l-3.031-2.637c-2.709 0.91-5.040 2.509-6.686 4.588s-2.531 4.542-2.54 7.066c0.010 2.789 1.090 5.495 3.070 7.69s4.745 3.754 7.859 4.43c2.78-2.942 4.407-6.579 4.646-10.38s-0.924-7.569-3.319-10.757zM33.63 14.268c-0.011-3.309-1.529-6.479-4.221-8.818s-6.342-3.658-10.15-3.668c-1.76-0.002-3.504 0.281-5.146 0.832l18.557 16.123c0.635-1.425 0.961-2.94 0.96-4.469z"></path>
</symbol>
<symbol id="icon-group5" viewBox="0 0 25 32">
<path d="M10.531 1.806h-0.084c-0.129-0.008-0.258-0.011-0.388-0.014h-0.28c-0.244 0-0.494 0.006-0.741 0.019-0.008-0.001-0.018-0.001-0.028-0.001s-0.020 0-0.029 0.001l0.001-0c-2.376 0.139-4.581 0.733-6.575 1.696l0.104-0.045-0.266 0.128v13.625l0.623-0.211c0.546-0.188 1.129-0.357 1.731-0.513 1.488-0.398 3.202-0.638 4.967-0.662l0.014-0v1.79c-0.236 0.002-0.465 0.009-0.692 0.020l0.037-0.002h-0.051c-1.399 0.079-2.71 0.289-3.971 0.619l0.139-0.031c-1.734 0.441-3.254 1.050-4.666 1.83l0.1-0.051v-17.475c1.379-0.82 2.974-1.488 4.663-1.921l0.127-0.028c1.353-0.364 2.908-0.576 4.511-0.582h0.267c0.314 0.008 0.621 0.022 0.909 0.044 0.829 0.059 1.597 0.187 2.34 0.378l-0.090-0.020v1.762c-0.628-0.154-1.373-0.271-2.134-0.326l-0.045-0.003-0.045-0.004c-0.152-0.013-0.304-0.026-0.446-0.026zM13.633 3.607c0.391 0.030 0.796 0.044 1.205 0.044 1.689-0.006 3.324-0.228 4.882-0.639l-0.135 0.030c1.734-0.443 3.253-1.052 4.665-1.832l-0.101 0.051v17.163c-1.379 0.819-2.975 1.487-4.665 1.921l-0.127 0.028c-1.353 0.362-2.908 0.574-4.511 0.581h-0.004c-0.033 0-0.072 0-0.111 0-1.177 0-2.319-0.147-3.409-0.425l0.095 0.021v-17.275c0.265 0.061 0.537 0.117 0.814 0.164 0.455 0.077 0.934 0.133 1.401 0.167zM22.367 3.74l-0.623 0.21c-0.376 0.138-0.954 0.315-1.539 0.474l-0.192 0.044c-1.551 0.415-3.332 0.657-5.169 0.663h-0.004c-0.406 0-0.78-0.011-1.141-0.034l-0.497-0.033v14.017l0.427 0.038c0.395 0.034 0.803 0.052 1.214 0.052 1.45-0.006 2.853-0.198 4.189-0.553l-0.115 0.026c1.221-0.31 2.281-0.701 3.285-1.188l-0.102 0.044 0.266-0.128v-13.63z"></path>
<path d="M1.684 25.977c-0.087-0.091-0.193-0.163-0.311-0.212l-0.006-0.002c-0.101-0.042-0.219-0.067-0.343-0.067-0.012 0-0.023 0-0.035 0.001l0.002-0c-0.004-0-0.009-0-0.014-0-0.139 0-0.272 0.028-0.393 0.078l0.007-0.003c-0.121 0.049-0.225 0.119-0.311 0.205v0c-0.086 0.087-0.154 0.191-0.199 0.307l-0.002 0.006c-0.045 0.111-0.072 0.24-0.072 0.375 0 0.004 0 0.008 0 0.012v-0.001 2.335c-0.006 0.165 0.026 0.328 0.092 0.479 0.055 0.12 0.135 0.226 0.233 0.313 0.093 0.079 0.203 0.135 0.321 0.166 0.113 0.032 0.231 0.048 0.349 0.049 0.003 0 0.006 0 0.009 0 0.134 0 0.26-0.030 0.374-0.084l-0.005 0.002c0.121-0.054 0.225-0.127 0.311-0.216l0-0c0.084-0.088 0.153-0.192 0.201-0.306l0.002-0.007c0.047-0.109 0.075-0.235 0.075-0.368 0-0.002 0-0.003 0-0.005v0-0.261h-0.61v0.208c0 0.004 0 0.009 0 0.014 0 0.070-0.013 0.137-0.037 0.198l0.001-0.004c-0.021 0.052-0.051 0.095-0.089 0.131l-0 0c-0.036 0.029-0.079 0.052-0.125 0.067l-0.003 0.001c-0.038 0.013-0.082 0.021-0.127 0.022h-0c-0.011 0.001-0.023 0.002-0.036 0.002-0.045 0-0.088-0.010-0.126-0.027l0.002 0.001c-0.051-0.023-0.094-0.057-0.126-0.1l-0.001-0.001c-0.051-0.082-0.081-0.182-0.081-0.289 0-0.008 0-0.017 0.001-0.025l-0 0.001v-2.177c-0-0.007-0-0.015-0-0.023 0-0.118 0.028-0.23 0.077-0.33l-0.002 0.004c0.032-0.049 0.076-0.088 0.127-0.113l0.002-0.001c0.039-0.019 0.084-0.030 0.132-0.030 0.013 0 0.026 0.001 0.039 0.002l-0.002-0c0.003-0 0.007-0 0.012-0 0.107 0 0.201 0.051 0.26 0.131l0.001 0.001c0.063 0.082 0.101 0.187 0.101 0.301 0 0.004-0 0.009-0 0.013v-0.001 0.202h0.604v-0.238c0-0.003 0-0.006 0-0.010 0-0.143-0.027-0.28-0.077-0.406l0.003 0.007c-0.048-0.128-0.117-0.237-0.204-0.329l0 0zM5.31 25.95c-0.186-0.158-0.429-0.255-0.694-0.257h-0c-0.131 0.001-0.256 0.025-0.372 0.068l0.007-0.002c-0.124 0.045-0.231 0.11-0.323 0.192l0.001-0.001c-0.099 0.090-0.179 0.198-0.234 0.321l-0.002 0.006c-0.056 0.127-0.089 0.275-0.089 0.431 0 0.007 0 0.015 0 0.022l-0-0.001v2.239c-0.004 0.158 0.026 0.314 0.089 0.459 0.055 0.12 0.136 0.227 0.237 0.313 0.093 0.087 0.203 0.154 0.322 0.197 0.117 0.043 0.24 0.065 0.364 0.066 0.131-0 0.256-0.024 0.372-0.068l-0.007 0.002c0.127-0.047 0.237-0.114 0.331-0.198l-0.001 0.001c0.096-0.086 0.173-0.19 0.228-0.307l0.002-0.006c0.056-0.127 0.089-0.274 0.089-0.43 0-0.010-0-0.020-0-0.030l0 0.002v-2.239c0-0.006 0-0.014 0-0.021 0-0.156-0.033-0.304-0.092-0.438l0.003 0.007c-0.057-0.128-0.135-0.236-0.23-0.327l-0-0zM5.025 28.969c0.001 0.010 0.001 0.022 0.001 0.034 0 0.114-0.047 0.216-0.123 0.289l-0 0c-0.077 0.065-0.178 0.105-0.287 0.105v0c-0.11-0-0.21-0.040-0.288-0.105l0.001 0.001c-0.076-0.073-0.123-0.176-0.123-0.289 0-0.012 0.001-0.024 0.002-0.036l-0 0.002v-2.239c-0.001-0.010-0.001-0.022-0.001-0.034 0-0.114 0.047-0.216 0.123-0.289l0-0c0.077-0.065 0.178-0.105 0.287-0.105v0c0.11 0 0.21 0.040 0.288 0.105l-0.001-0.001c0.076 0.073 0.123 0.176 0.123 0.29 0 0.012-0.001 0.024-0.002 0.036l0-0.002v2.239zM10.072 29.969v-4.239h-0.587l-0.771 2.244h-0.011l-0.777-2.244h-0.581v4.239h0.606v-2.579h0.011l0.593 1.823h0.302l0.598-1.823h0.011v2.579h0.606zM13.513 26.027c-0.091-0.102-0.207-0.182-0.337-0.23l-0.006-0.002c-0.124-0.042-0.267-0.066-0.416-0.066-0.008 0-0.016 0-0.024 0l0.001-0h-0.9v4.239h0.604v-1.656h0.311c0.188 0.009 0.376-0.031 0.545-0.116 0.139-0.078 0.251-0.188 0.329-0.32l0.002-0.004c0.067-0.106 0.115-0.23 0.138-0.363l0.001-0.006c0.021-0.134 0.033-0.288 0.033-0.444 0-0.013-0-0.026-0-0.040l0 0.002c0.001-0.021 0.001-0.045 0.001-0.070 0-0.19-0.022-0.375-0.063-0.552l0.003 0.016c-0.043-0.153-0.12-0.284-0.223-0.39l0 0zM13.201 27.319c-0.003 0.081-0.023 0.156-0.057 0.224l0.001-0.003c-0.035 0.065-0.089 0.116-0.154 0.148l-0.002 0.001c-0.074 0.034-0.161 0.054-0.253 0.054-0.011 0-0.022-0-0.033-0.001l0.002 0h-0.275v-1.441h0.311c0.008-0 0.018-0.001 0.028-0.001 0.089 0 0.172 0.020 0.248 0.055l-0.004-0.002c0.062 0.036 0.111 0.090 0.141 0.154l0.001 0.002c0.033 0.074 0.051 0.155 0.053 0.236v0.282c0 0.099 0.006 0.2 0 0.291h-0.006zM16.374 25.73h-0.495l-0.934 4.239h0.604l0.177-0.911h0.823l0.177 0.911h0.604l-0.957-4.239zM15.817 28.481l0.297-1.537h0.011l0.296 1.537h-0.604zM20.277 28.284h-0.011l-0.912-2.554h-0.581v4.239h0.604v-2.549h0.012l0.923 2.549h0.568v-4.239h-0.604v2.554zM23.968 25.73l-0.486 1.685h-0.012l-0.486-1.685h-0.64l0.83 2.447v1.792h0.604v-1.792l0.83-2.447h-0.64zM0 31.166h0.291v0.817h0.198v-0.817h0.29v-0.167h-0.778v0.167zM2.447 30.998l-0.381 0.984h0.21l0.081-0.224h0.392l0.084 0.224h0.215l-0.391-0.984h-0.21zM2.416 31.593l0.134-0.365 0.134 0.365h-0.268zM4.866 31.62h0.227v0.127c-0.063 0.051-0.145 0.082-0.233 0.083h-0c-0.004 0-0.009 0-0.014 0-0.079 0-0.149-0.037-0.194-0.094l-0-0c-0.046-0.066-0.074-0.147-0.074-0.235 0-0.008 0-0.015 0.001-0.023l-0 0.001c0-0.219 0.095-0.329 0.283-0.329 0.006-0.001 0.013-0.001 0.021-0.001 0.045 0 0.086 0.014 0.12 0.038l-0.001-0c0.040 0.029 0.070 0.070 0.082 0.118l0 0.001 0.195-0.038c-0.042-0.192-0.181-0.289-0.417-0.289-0.004-0-0.008-0-0.013-0-0.127 0-0.244 0.048-0.331 0.127l0-0c-0.048 0.048-0.087 0.106-0.111 0.17l-0.001 0.003c-0.019 0.050-0.031 0.108-0.031 0.169 0 0.013 0 0.025 0.001 0.038l-0-0.002c-0 0.007-0 0.015-0 0.023 0 0.132 0.048 0.253 0.127 0.347l-0.001-0.001c0.087 0.089 0.208 0.145 0.342 0.145 0.011 0 0.022-0 0.033-0.001l-0.001 0c0.005 0 0.011 0 0.016 0 0.155 0 0.296-0.060 0.401-0.157l-0 0v-0.388h-0.427v0.166zM7.337 30.998h-0.199v0.984h0.69v-0.167h-0.49v-0.817zM9.426 30.998h-0.199v0.984h0.199v-0.984zM11.469 31.656l-0.403-0.657h-0.193v0.984h0.185v-0.643l0.395 0.643h0.198v-0.984h-0.182v0.657zM13.315 31.549h0.49v-0.167h-0.49v-0.216h0.528v-0.167h-0.727v0.984h0.747v-0.167h-0.548v-0.266zM17.792 31.387h-0.388v-0.388h-0.198v0.984h0.198v-0.43h0.388v0.43h0.198v-0.984h-0.198v0.388zM19.649 31.549h0.492v-0.167h-0.492v-0.216h0.529v-0.167h-0.727v0.984h0.746v-0.167h-0.548v-0.266zM22.168 31.549c0.171-0.027 0.258-0.117 0.258-0.274 0.001-0.008 0.002-0.018 0.002-0.028 0-0.079-0.038-0.148-0.098-0.191l-0.001-0c-0.073-0.037-0.159-0.059-0.25-0.059-0.013 0-0.027 0-0.040 0.001l0.002-0h-0.417v0.984h0.198v-0.412h0.039c0.005-0 0.011-0 0.016-0 0.039 0 0.075 0.008 0.108 0.023l-0.002-0.001c0.029 0.018 0.053 0.042 0.070 0.071l0.001 0.001 0.215 0.313h0.237l-0.12-0.192c-0.054-0.096-0.128-0.175-0.215-0.235l-0.002-0.002zM21.969 31.413h-0.146v-0.247h0.156c0.012-0.001 0.027-0.002 0.042-0.002 0.057 0 0.112 0.009 0.163 0.026l-0.004-0.001c0.027 0.024 0.043 0.058 0.043 0.096 0 0.043-0.021 0.080-0.052 0.104l-0 0c-0.049 0.016-0.106 0.025-0.165 0.025-0.013 0-0.025-0-0.038-0.001l0.002 0zM24.067 31.549h0.49v-0.167h-0.49v-0.216h0.529v-0.167h-0.729v0.984h0.747v-0.167h-0.548v-0.266z"></path>
</symbol>
<symbol id="icon-group6" viewBox="0 0 28 32">
<path d="M4.085 0l4.771 4.517-8.856-0.005v21.915h23.149v-8.379l4.766 4.512v-22.559h-23.83zM22.939 17.517l-13.528-12.807h13.528v12.807zM18.739 23.221h-15.076v-14.739h1.066v13.741h14.010v0.998zM7.223 29.344l-0.557 1.147-0.557-1.147h-0.467l0.813 1.529v0.891h0.422v-0.891l0.811-1.529h-0.465zM7.923 31.764l0.196-0.563h0.938l0.198 0.563h0.439l-0.916-2.42h-0.377l-0.914 2.42h0.437zM8.588 29.858l0.351 1.004h-0.701l0.351-1.004zM10.805 30.804c-0.057 0.085-0.091 0.191-0.091 0.304 0 0.001 0 0.003 0 0.004v-0c0 0.204 0.072 0.37 0.214 0.497 0.144 0.126 0.336 0.189 0.575 0.189s0.445-0.065 0.618-0.194l0.136 0.161h0.469l-0.356-0.421c0.14-0.191 0.209-0.435 0.209-0.733h-0.351c0 0.163-0.034 0.311-0.101 0.444l-0.467-0.552 0.165-0.12c0.116-0.084 0.2-0.168 0.251-0.253 0.048-0.079 0.076-0.174 0.076-0.275 0-0.001 0-0.003 0-0.004v0c0-0.153-0.056-0.281-0.17-0.384-0.112-0.104-0.256-0.156-0.432-0.156-0.195 0-0.35 0.055-0.465 0.166-0.115 0.11-0.173 0.259-0.173 0.449 0 0.078 0.018 0.158 0.055 0.241 0.038 0.083 0.104 0.184 0.198 0.303-0.18 0.129-0.3 0.24-0.361 0.334zM11.897 31.339c-0.119 0.091-0.246 0.136-0.382 0.136-0.121 0-0.217-0.035-0.289-0.105s-0.108-0.161-0.108-0.273c0-0.13 0.067-0.245 0.2-0.346l0.052-0.037 0.529 0.623zM11.463 30.267c-0.114-0.141-0.171-0.258-0.171-0.351 0-0.081 0.023-0.148 0.070-0.201s0.109-0.080 0.188-0.080c0.073 0 0.133 0.023 0.181 0.068 0.048 0.044 0.072 0.098 0.072 0.161 0 0.095-0.034 0.173-0.103 0.234l-0.052 0.042-0.184 0.126zM15.403 31.581c0.166-0.145 0.262-0.347 0.286-0.605h-0.419c-0.022 0.173-0.075 0.296-0.158 0.371s-0.207 0.111-0.372 0.111c-0.181 0-0.318-0.069-0.412-0.206-0.093-0.137-0.14-0.337-0.14-0.598v-0.214c0.002-0.258 0.052-0.454 0.15-0.587 0.099-0.134 0.239-0.201 0.422-0.201 0.157 0 0.277 0.039 0.357 0.116 0.082 0.076 0.133 0.202 0.153 0.376h0.419c-0.027-0.265-0.121-0.47-0.284-0.615s-0.378-0.218-0.645-0.218c-0.198 0-0.373 0.047-0.525 0.141-0.151 0.094-0.267 0.228-0.347 0.402s-0.121 0.375-0.121 0.603v0.226c0.003 0.223 0.045 0.418 0.125 0.587s0.193 0.299 0.339 0.391c0.147 0.091 0.317 0.136 0.51 0.136 0.276 0 0.497-0.072 0.663-0.216zM17.875 31.242c0.082-0.18 0.123-0.388 0.123-0.625v-0.135c-0.001-0.236-0.043-0.443-0.126-0.62-0.083-0.178-0.201-0.315-0.354-0.409-0.152-0.095-0.326-0.143-0.524-0.143s-0.372 0.048-0.525 0.145c-0.152 0.095-0.27 0.233-0.354 0.414-0.083 0.181-0.125 0.389-0.125 0.625v0.136c0.001 0.232 0.043 0.436 0.126 0.613 0.084 0.177 0.203 0.314 0.356 0.411 0.154 0.095 0.329 0.143 0.525 0.143 0.198 0 0.373-0.048 0.525-0.143 0.153-0.096 0.27-0.234 0.352-0.412zM17.424 29.874c0.102 0.143 0.153 0.349 0.153 0.617v0.126c0 0.273-0.050 0.48-0.151 0.622-0.1 0.142-0.243 0.213-0.429 0.213-0.184 0-0.328-0.073-0.432-0.218-0.103-0.145-0.155-0.351-0.155-0.617v-0.14c0.002-0.26 0.054-0.462 0.156-0.603 0.103-0.143 0.245-0.214 0.427-0.214 0.186 0 0.33 0.072 0.43 0.214z"></path>
</symbol>
</defs>
</svg>
